<svg width="714" height="84" viewBox="0 0 714 84" fill="none" xmlns="http://www.w3.org/2000/svg">
<rect x="41" y="67" width="633" height="7" rx="2.5" fill="#535353"/>
<path d="M4.97 73.168C4.06467 73.168 3.29 72.958 2.646 72.538C2.002 72.1087 1.50267 71.516 1.148 70.76C0.802667 69.9947 0.63 69.108 0.63 68.1C0.63 67.1013 0.802667 66.2193 1.148 65.454C1.50267 64.6887 2.002 64.096 2.646 63.676C3.29 63.2467 4.06467 63.032 4.97 63.032C5.87533 63.032 6.65 63.2467 7.294 63.676C7.938 64.096 8.43267 64.6887 8.778 65.454C9.13267 66.2193 9.31 67.1013 9.31 68.1C9.31 69.108 9.13267 69.9947 8.778 70.76C8.43267 71.516 7.938 72.1087 7.294 72.538C6.65 72.958 5.87533 73.168 4.97 73.168ZM4.97 71.558C5.70733 71.558 6.30933 71.25 6.776 70.634C7.24267 70.018 7.476 69.1733 7.476 68.1C7.476 67.0267 7.24267 66.182 6.776 65.566C6.30933 64.95 5.70733 64.642 4.97 64.642C4.22333 64.642 3.61667 64.95 3.15 65.566C2.69267 66.182 2.464 67.0267 2.464 68.1C2.464 69.1733 2.69267 70.018 3.15 70.634C3.61667 71.25 4.22333 71.558 4.97 71.558ZM12.1795 73.098C11.8528 73.098 11.5821 72.9953 11.3675 72.79C11.1621 72.5847 11.0595 72.3373 11.0595 72.048C11.0595 71.7493 11.1621 71.4973 11.3675 71.292C11.5821 71.0867 11.8528 70.984 12.1795 70.984C12.5061 70.984 12.7721 71.0867 12.9775 71.292C13.1921 71.4973 13.2995 71.7493 13.2995 72.048C13.2995 72.3373 13.1921 72.5847 12.9775 72.79C12.7721 72.9953 12.5061 73.098 12.1795 73.098ZM12.1795 68.002C11.8528 68.002 11.5821 67.8993 11.3675 67.694C11.1621 67.4887 11.0595 67.2413 11.0595 66.952C11.0595 66.6533 11.1621 66.4013 11.3675 66.196C11.5821 65.9907 11.8528 65.888 12.1795 65.888C12.5061 65.888 12.7721 65.9907 12.9775 66.196C13.1921 66.4013 13.2995 66.6533 13.2995 66.952C13.2995 67.2413 13.1921 67.4887 12.9775 67.694C12.7721 67.8993 12.5061 68.002 12.1795 68.002ZM19.4201 73.168C18.5147 73.168 17.7401 72.958 17.0961 72.538C16.4521 72.1087 15.9527 71.516 15.5981 70.76C15.2527 69.9947 15.0801 69.108 15.0801 68.1C15.0801 67.1013 15.2527 66.2193 15.5981 65.454C15.9527 64.6887 16.4521 64.096 17.0961 63.676C17.7401 63.2467 18.5147 63.032 19.4201 63.032C20.3254 63.032 21.1001 63.2467 21.7441 63.676C22.3881 64.096 22.8827 64.6887 23.2281 65.454C23.5827 66.2193 23.7601 67.1013 23.7601 68.1C23.7601 69.108 23.5827 69.9947 23.2281 70.76C22.8827 71.516 22.3881 72.1087 21.7441 72.538C21.1001 72.958 20.3254 73.168 19.4201 73.168ZM19.4201 71.558C20.1574 71.558 20.7594 71.25 21.2261 70.634C21.6927 70.018 21.9261 69.1733 21.9261 68.1C21.9261 67.0267 21.6927 66.182 21.2261 65.566C20.7594 64.95 20.1574 64.642 19.4201 64.642C18.6734 64.642 18.0667 64.95 17.6001 65.566C17.1427 66.182 16.9141 67.0267 16.9141 68.1C16.9141 69.1733 17.1427 70.018 17.6001 70.634C18.0667 71.25 18.6734 71.558 19.4201 71.558ZM29.9195 73.168C29.0142 73.168 28.2395 72.958 27.5955 72.538C26.9515 72.1087 26.4522 71.516 26.0975 70.76C25.7522 69.9947 25.5795 69.108 25.5795 68.1C25.5795 67.1013 25.7522 66.2193 26.0975 65.454C26.4522 64.6887 26.9515 64.096 27.5955 63.676C28.2395 63.2467 29.0142 63.032 29.9195 63.032C30.8249 63.032 31.5995 63.2467 32.2435 63.676C32.8875 64.096 33.3822 64.6887 33.7275 65.454C34.0822 66.2193 34.2595 67.1013 34.2595 68.1C34.2595 69.108 34.0822 69.9947 33.7275 70.76C33.3822 71.516 32.8875 72.1087 32.2435 72.538C31.5995 72.958 30.8249 73.168 29.9195 73.168ZM29.9195 71.558C30.6569 71.558 31.2589 71.25 31.7255 70.634C32.1922 70.018 32.4255 69.1733 32.4255 68.1C32.4255 67.0267 32.1922 66.182 31.7255 65.566C31.2589 64.95 30.6569 64.642 29.9195 64.642C29.1729 64.642 28.5662 64.95 28.0995 65.566C27.6422 66.182 27.4135 67.0267 27.4135 68.1C27.4135 69.1733 27.6422 70.018 28.0995 70.634C28.5662 71.25 29.1729 71.558 29.9195 71.558Z" fill="#C4C4C4"/>
<path d="M683.714 75V73.698C684.311 73.2033 684.89 72.7133 685.45 72.228C686.019 71.7427 686.523 71.262 686.962 70.786C687.41 70.31 687.765 69.848 688.026 69.4C688.297 68.9427 688.432 68.4993 688.432 68.07C688.432 67.6687 688.32 67.314 688.096 67.006C687.881 66.698 687.522 66.544 687.018 66.544C686.505 66.544 686.117 66.712 685.856 67.048C685.595 67.384 685.464 67.79 685.464 68.266H683.728C683.747 67.5473 683.905 66.95 684.204 66.474C684.503 65.9887 684.899 65.6293 685.394 65.396C685.889 65.1533 686.444 65.032 687.06 65.032C688.059 65.032 688.833 65.3073 689.384 65.858C689.944 66.3993 690.224 67.104 690.224 67.972C690.224 68.5133 690.098 69.0407 689.846 69.554C689.603 70.0673 689.281 70.562 688.88 71.038C688.479 71.514 688.045 71.962 687.578 72.382C687.111 72.7927 686.659 73.1753 686.22 73.53H690.462V75H683.714ZM693.238 75.098C692.911 75.098 692.641 74.9953 692.426 74.79C692.221 74.5847 692.118 74.3373 692.118 74.048C692.118 73.7493 692.221 73.4973 692.426 73.292C692.641 73.0867 692.911 72.984 693.238 72.984C693.565 72.984 693.831 73.0867 694.036 73.292C694.251 73.4973 694.358 73.7493 694.358 74.048C694.358 74.3373 694.251 74.5847 694.036 74.79C693.831 74.9953 693.565 75.098 693.238 75.098ZM693.238 70.002C692.911 70.002 692.641 69.8993 692.426 69.694C692.221 69.4887 692.118 69.2413 692.118 68.952C692.118 68.6533 692.221 68.4013 692.426 68.196C692.641 67.9907 692.911 67.888 693.238 67.888C693.565 67.888 693.831 67.9907 694.036 68.196C694.251 68.4013 694.358 68.6533 694.358 68.952C694.358 69.2413 694.251 69.4887 694.036 69.694C693.831 69.8993 693.565 70.002 693.238 70.002ZM700.941 75V73.18H696.111V71.752L700.703 65.2H702.733V71.626H704.021V73.18H702.733V75H700.941ZM698.029 71.626H701.053V67.174L698.029 71.626ZM705.751 75V73.698C706.349 73.2033 706.927 72.7133 707.487 72.228C708.057 71.7427 708.561 71.262 708.999 70.786C709.447 70.31 709.802 69.848 710.063 69.4C710.334 68.9427 710.469 68.4993 710.469 68.07C710.469 67.6687 710.357 67.314 710.133 67.006C709.919 66.698 709.559 66.544 709.055 66.544C708.542 66.544 708.155 66.712 707.893 67.048C707.632 67.384 707.501 67.79 707.501 68.266H705.765C705.784 67.5473 705.943 66.95 706.241 66.474C706.54 65.9887 706.937 65.6293 707.431 65.396C707.926 65.1533 708.481 65.032 709.097 65.032C710.096 65.032 710.871 65.3073 711.421 65.858C711.981 66.3993 712.261 67.104 712.261 67.972C712.261 68.5133 712.135 69.0407 711.883 69.554C711.641 70.0673 711.319 70.562 710.917 71.038C710.516 71.514 710.082 71.962 709.615 72.382C709.149 72.7927 708.696 73.1753 708.257 73.53H712.499V75H705.751Z" fill="#C4C4C4"/>
<path d="M262.339 29.4905C261.876 29.3443 261.284 28.9633 260.622 28.3003C260.053 27.7438 259.467 27.0268 258.867 26.2453C258.723 26.4365 258.58 26.6278 258.436 26.8228C258.043 27.3538 257.642 27.89 257.233 28.4173C258.661 30.1498 260.143 31.8508 262.341 32.1313V34.1563L268.007 30.8863L262.34 27.614V29.4905H262.339ZM252.894 22.9505C253.461 23.5055 254.047 24.2225 254.649 25.004C254.794 24.8075 254.941 24.614 255.088 24.413C255.48 23.8809 255.878 23.3534 256.282 22.8305C254.758 20.9825 253.183 19.1503 250.735 19.0625H248.11V21.6875H250.735C251.227 21.6673 251.997 22.0513 252.894 22.9498V22.9505ZM262.339 21.7558V23.6578L268.006 20.3855L262.339 17.1133V19.0985C260.911 19.2635 259.771 20.1095 258.777 21.0815C257.129 22.7195 255.689 24.9575 254.268 26.7365C252.868 28.5643 251.463 29.6518 250.734 29.564H248.109V32.189H250.734C252.373 32.1665 253.644 31.2395 254.739 30.1693C256.384 28.5313 257.826 26.294 259.246 24.5158C260.404 23.003 261.559 22.0108 262.339 21.7558Z" fill="#C4C4C4"/>
<path d="M313.667 18.0416L304.625 24.5L313.667 30.9583V18.0416ZM304.625 24.5V18.0416H302.042V30.9583H304.625V24.5Z" fill="#C4C4C4"/>
<path d="M402.333 18.0416L411.375 24.5L402.333 30.9583V18.0416ZM411.375 24.5V18.0416H413.958V30.9583H411.375V24.5Z" fill="#C4C4C4"/>
<path d="M357.5 4.25C353.297 4.25 349.189 5.49629 345.694 7.83127C342.2 10.1663 339.476 13.485 337.868 17.368C336.259 21.2509 335.838 25.5236 336.658 29.6457C337.478 33.7678 339.502 37.5542 342.474 40.526C345.446 43.4979 349.232 45.5218 353.354 46.3417C357.476 47.1616 361.749 46.7408 365.632 45.1324C369.515 43.5241 372.834 40.8004 375.169 37.3059C377.504 33.8113 378.75 29.7029 378.75 25.5C378.75 22.7094 378.2 19.9461 377.132 17.368C376.065 14.7898 374.499 12.4472 372.526 10.474C370.553 8.50074 368.21 6.93547 365.632 5.86756C363.054 4.79965 360.291 4.25 357.5 4.25ZM353.354 32.5V17.381L365 25.5L353.354 32.5Z" fill="white"/>
<path d="M465.15 22.338C465.278 22.338 465.395 22.382 465.489 22.4557L465.562 22.525L465.581 22.547C466.22 23.3391 466.627 24.293 466.756 25.3025C466.885 26.312 466.732 27.3375 466.313 28.265C465.894 29.1925 465.226 29.9855 464.383 30.5559C463.54 31.1262 462.555 31.4515 461.539 31.4955L461.3 31.4999H454.7C454.589 31.5 454.478 31.4967 454.367 31.49L456.189 33.3105C456.28 33.4017 456.336 33.5218 456.348 33.6501C456.359 33.7783 456.325 33.9065 456.252 34.0123L456.189 34.0893C456.098 34.1803 455.978 34.2364 455.85 34.2478C455.722 34.2593 455.593 34.2254 455.488 34.152L455.411 34.0893L452.661 31.3393C452.57 31.2482 452.514 31.128 452.502 30.9998C452.491 30.8716 452.525 30.7434 452.598 30.6375L452.661 30.5605L455.411 27.8105C455.508 27.7131 455.638 27.6555 455.775 27.6492C455.912 27.6428 456.047 27.6881 456.153 27.7762C456.258 27.8643 456.327 27.9887 456.345 28.1249C456.364 28.2612 456.331 28.3994 456.252 28.5123L456.189 28.5893L454.389 30.3889L454.543 30.3977L454.7 30.3999H461.3C462.131 30.4 462.945 30.1648 463.648 29.7216C464.35 29.2783 464.913 28.6451 465.271 27.8952C465.629 27.1453 465.767 26.3094 465.67 25.4842C465.573 24.659 465.244 23.8783 464.721 23.2323C464.656 23.1515 464.616 23.054 464.604 22.9512C464.593 22.8484 464.61 22.7443 464.655 22.651C464.7 22.5577 464.77 22.479 464.858 22.4238C464.945 22.3686 465.046 22.3393 465.15 22.3391V22.338ZM459.811 17.9105C459.902 17.8196 460.022 17.7635 460.15 17.7521C460.278 17.7406 460.407 17.7745 460.512 17.8478L460.589 17.9105L463.339 20.6605L463.402 20.7375C463.465 20.8294 463.499 20.9383 463.499 21.0499C463.499 21.1615 463.465 21.2705 463.402 21.3623L463.339 21.4393L460.589 24.1893L460.512 24.252C460.421 24.3154 460.312 24.3494 460.2 24.3494C460.088 24.3494 459.979 24.3154 459.888 24.252L459.811 24.1893L459.748 24.1123C459.685 24.0205 459.651 23.9115 459.651 23.7999C459.651 23.6883 459.685 23.5794 459.748 23.4875L459.811 23.4105L461.611 21.6109L461.457 21.6021L461.3 21.5999H454.7C453.868 21.5999 453.054 21.8355 452.351 22.2795C451.647 22.7235 451.084 23.3577 450.727 24.1086C450.369 24.8595 450.232 25.6963 450.331 26.522C450.429 27.3478 450.76 28.1286 451.284 28.7741C451.372 28.891 451.41 29.0379 451.389 29.1825C451.369 29.3271 451.291 29.4576 451.174 29.5452C451.117 29.5887 451.051 29.6202 450.981 29.6382C450.911 29.6562 450.838 29.6602 450.766 29.6499C450.622 29.6293 450.491 29.5521 450.403 29.4352C449.769 28.642 449.366 27.6884 449.24 26.6803C449.115 25.6722 449.27 24.649 449.691 23.7241C450.111 22.7992 450.779 22.0087 451.621 21.4404C452.463 20.8721 453.446 20.5481 454.461 20.5043L454.7 20.4999H461.3C461.412 20.4999 461.523 20.5032 461.633 20.5098L459.811 18.6893L459.748 18.6123C459.675 18.5065 459.641 18.3783 459.652 18.2501C459.664 18.1218 459.72 18.0017 459.811 17.9105Z" fill="#C4C4C4"/>
</svg>
