<svg width="301" height="32" viewBox="0 0 301 32" fill="none" xmlns="http://www.w3.org/2000/svg">
<path d="M293 8H297V12" stroke="#B3B3B3" stroke-width="2" stroke-linecap="round" stroke-linejoin="round"/>
<path d="M291 14L297 8" stroke="#B3B3B3" stroke-width="2" stroke-linecap="round" stroke-linejoin="round"/>
<path d="M285 24H281V20" stroke="#B3B3B3" stroke-width="2" stroke-linecap="round" stroke-linejoin="round"/>
<path d="M281 24L287 18" stroke="#B3B3B3" stroke-width="2" stroke-linecap="round" stroke-linejoin="round"/>
<path d="M292 8.25001C292 7.17101 290.726 6.60001 289.92 7.31601L285.427 11.309C285.29 11.4312 285.113 11.4988 284.929 11.499H281.25C280.653 11.499 280.081 11.7361 279.659 12.158C279.237 12.58 279 13.1523 279 13.749V18.246C279 18.8427 279.237 19.415 279.659 19.837C280.081 20.259 280.653 20.496 281.25 20.496H284.93C285.114 20.4962 285.291 20.5638 285.428 20.686L289.919 24.68C290.725 25.396 292 24.824 292 23.746V8.25001ZM286.425 12.43L290.5 8.80701V23.189L286.425 19.565C286.013 19.1986 285.481 18.9961 284.93 18.996H281.25C281.051 18.996 280.86 18.917 280.72 18.7763C280.579 18.6357 280.5 18.4449 280.5 18.246V13.75C280.5 13.5511 280.579 13.3603 280.72 13.2197C280.86 13.079 281.051 13 281.25 13H284.93C285.481 12.9999 286.013 12.7974 286.425 12.431V12.43Z" fill="black"/>
<path d="M295.992 9.89702C296.071 9.83845 296.161 9.79605 296.257 9.77224C296.352 9.74843 296.452 9.74368 296.549 9.75826C296.646 9.77284 296.74 9.80646 296.824 9.85721C296.909 9.90796 296.982 9.97483 297.041 10.054C298.316 11.7739 299.003 13.859 299 16C299.003 18.1412 298.315 20.2262 297.04 21.946C296.919 22.0988 296.744 22.1985 296.551 22.2242C296.358 22.2498 296.162 22.1994 296.006 22.0835C295.849 21.9676 295.744 21.7954 295.712 21.6033C295.68 21.4112 295.724 21.2142 295.835 21.054C296.919 19.5923 297.503 17.8199 297.5 16C297.503 14.1801 296.919 12.4077 295.835 10.946C295.776 10.8668 295.734 10.7769 295.71 10.6813C295.686 10.5857 295.682 10.4864 295.696 10.389C295.711 10.2916 295.744 10.198 295.795 10.1136C295.846 10.0292 295.913 9.95559 295.992 9.89702Z" fill="black"/>
<path d="M294.143 12.37C294.23 12.323 294.325 12.2936 294.423 12.2834C294.521 12.2731 294.62 12.2823 294.714 12.3103C294.809 12.3384 294.897 12.3847 294.973 12.4468C295.05 12.5089 295.113 12.5854 295.16 12.672C295.696 13.662 296 14.797 296 16C296.002 17.162 295.713 18.306 295.16 19.328C295.065 19.5031 294.905 19.6333 294.714 19.6901C294.524 19.747 294.318 19.7257 294.143 19.631C293.968 19.5363 293.838 19.376 293.781 19.1853C293.724 18.9945 293.745 18.7891 293.84 18.614C294.26 17.837 294.5 16.948 294.5 16C294.5 15.052 294.26 14.163 293.84 13.386C293.793 13.2994 293.764 13.2043 293.754 13.1063C293.743 13.0082 293.753 12.9092 293.781 12.8147C293.809 12.7203 293.855 12.6323 293.918 12.5558C293.98 12.4793 294.056 12.4159 294.143 12.369V12.37Z" fill="black"/>
<path d="M134 10.25C134 9.17101 132.726 8.60001 131.92 9.31601L127.427 13.309C127.29 13.4312 127.113 13.4988 126.929 13.499H123.25C122.653 13.499 122.081 13.7361 121.659 14.158C121.237 14.58 121 15.1523 121 15.749V20.246C121 20.8427 121.237 21.415 121.659 21.837C122.081 22.259 122.653 22.496 123.25 22.496H126.93C127.114 22.4962 127.291 22.5638 127.428 22.686L131.919 26.68C132.725 27.396 134 26.824 134 25.746V10.25ZM128.425 14.43L132.5 10.807V25.189L128.425 21.565C128.013 21.1986 127.481 20.9961 126.93 20.996H123.25C123.051 20.996 122.86 20.917 122.72 20.7763C122.579 20.6357 122.5 20.4449 122.5 20.246V15.75C122.5 15.5511 122.579 15.3603 122.72 15.2197C122.86 15.079 123.051 15 123.25 15H126.93C127.481 14.9999 128.013 14.7974 128.425 14.431V14.43Z" fill="#B3B3B3"/>
<path d="M137.992 11.897C138.071 11.8385 138.161 11.7961 138.257 11.7722C138.352 11.7484 138.452 11.7437 138.549 11.7583C138.646 11.7728 138.74 11.8065 138.824 11.8572C138.909 11.908 138.982 11.9748 139.041 12.054C140.316 13.7739 141.003 15.859 141 18C141.003 20.1412 140.315 22.2262 139.04 23.946C138.919 24.0988 138.744 24.1985 138.551 24.2242C138.358 24.2498 138.162 24.1994 138.006 24.0835C137.849 23.9676 137.744 23.7954 137.712 23.6033C137.68 23.4112 137.724 23.2142 137.835 23.054C138.919 21.5923 139.503 19.8199 139.5 18C139.503 16.1801 138.919 14.4077 137.835 12.946C137.776 12.8668 137.734 12.7769 137.71 12.6813C137.686 12.5857 137.682 12.4864 137.696 12.389C137.711 12.2916 137.744 12.198 137.795 12.1136C137.846 12.0292 137.913 11.9556 137.992 11.897Z" fill="#B3B3B3"/>
<path d="M136.143 14.37C136.23 14.323 136.325 14.2936 136.423 14.2834C136.521 14.2731 136.62 14.2823 136.714 14.3103C136.809 14.3384 136.897 14.3847 136.973 14.4468C137.05 14.5089 137.113 14.5854 137.16 14.672C137.696 15.662 138 16.797 138 18C138.002 19.162 137.713 20.306 137.16 21.328C137.065 21.5031 136.905 21.6333 136.714 21.6901C136.524 21.747 136.318 21.7257 136.143 21.631C135.968 21.5363 135.838 21.376 135.781 21.1853C135.724 20.9945 135.745 20.7891 135.84 20.614C136.26 19.837 136.5 18.948 136.5 18C136.5 17.052 136.26 16.163 135.84 15.386C135.793 15.2994 135.764 15.2043 135.754 15.1063C135.743 15.0082 135.753 14.9092 135.781 14.8147C135.809 14.7203 135.855 14.6323 135.918 14.5558C135.98 14.4793 136.056 14.4159 136.143 14.369V14.37Z" fill="#B3B3B3"/>
<rect x="152" y="16" width="116" height="5" rx="2.5" fill="#C4C4C4"/>
<path d="M99.5 24.0038H84.5C84.1023 24.0034 83.721 23.8452 83.4398 23.564C83.1586 23.2828 83.0004 22.9015 83 22.5038V12.0038C83.0004 11.6061 83.1586 11.2248 83.4398 10.9436C83.721 10.6623 84.1023 10.5042 84.5 10.5038H99.5C99.8977 10.5042 100.279 10.6623 100.56 10.9436C100.841 11.2248 101 11.6061 101 12.0038V22.5038C100.999 22.9014 100.841 23.2826 100.56 23.5638C100.279 23.845 99.8976 24.0032 99.5 24.0038ZM84.5 12.0038V22.5038H99.5V12.0038H84.5Z" fill="#1B9145"/>
<path d="M81.5 25.5038H102.5V27.0038H81.5V25.5038Z" fill="#1B9145"/>
<path d="M44 19H62V21H44V19Z" fill="#C4C4C4"/>
<path d="M53 14H62V16H53V14Z" fill="#C4C4C4"/>
<path d="M44 24H62V26H44V24Z" fill="#C4C4C4"/>
<path d="M44 9L50 13.5L44 18V9Z" fill="#C4C4C4"/>
<path d="M18.1263 17.6003C18.8866 16.4063 19.1415 14.9592 18.8348 13.5772C18.5281 12.1953 17.685 10.9919 16.491 10.2316C15.297 9.47127 13.8498 9.21643 12.4679 9.52312C11.086 9.82981 9.88252 10.6729 9.12223 11.8669L9.08116 11.9217L9.04894 11.982C8.31157 13.1643 8.06805 14.5889 8.37082 15.9489C8.41082 16.1356 8.46184 16.3198 8.52362 16.5004L4.74411 25.0937C4.62959 25.3537 4.61205 25.6461 4.69469 25.9179C4.77733 26.1897 4.95466 26.4229 5.19451 26.5751L6.46058 27.3812C6.69997 27.5342 6.98626 27.5962 7.2675 27.5561C7.54873 27.516 7.80627 27.3765 7.99339 27.1627L14.1811 20.1028C14.3709 20.0824 14.5593 20.0507 14.7454 20.008C16.1059 19.707 17.2937 18.8837 18.0531 17.7154L18.0941 17.6607L18.1263 17.6003ZM17.6452 13.8907C17.8406 14.7663 17.7448 15.6818 17.3724 16.498L10.44 12.0838C10.9416 11.4973 11.5969 11.0624 12.3321 10.8279C13.0674 10.5933 13.8535 10.5685 14.602 10.7563C15.3506 10.944 16.032 11.3368 16.5696 11.8905C17.1072 12.4442 17.4797 13.1369 17.6452 13.8907ZM7.09762 26.3808L5.83156 25.5746L9.22361 17.8732C10.0341 19.0178 11.261 19.7991 12.6411 20.0493L7.09762 26.3808ZM9.53012 15.6917C9.33467 14.816 9.43047 13.9005 9.80293 13.0843L10.44 12.0838L17.3724 16.498C16.8707 17.0845 15.5784 18.5199 14.8432 18.7545C14.1079 18.989 13.3218 19.0138 12.5732 18.8261C11.8247 18.6384 11.1433 18.2456 10.6057 17.6919C10.0681 17.1381 9.69564 16.4455 9.53012 15.6917Z" fill="#C4C4C4"/>
</svg>
